<svg id="Layer_1" data-name="Layer 1" xmlns="http://www.w3.org/2000/svg" viewBox="0 0 59.5 59.5"><defs><style>.cls-1{fill:#539cd3;}.cls-2{fill:#fff;}</style></defs><title>avatar</title><circle class="cls-1" cx="29.75" cy="29.75" r="29.75"/><path class="cls-2" d="M40.91,40.91H18.59a17.07,17.07,0,0,1,.12-2.33q.22-1.15,4.71-2.85c.46-.15,1-.34,1.68-.58a5,5,0,0,0,1.57-.72,2.9,2.9,0,0,0,.23-1.54v-.35a2.2,2.2,0,0,0-.52-1.37,5.42,5.42,0,0,1-.81-2.35,2.7,2.7,0,0,0-.35-.93,4.66,4.66,0,0,1-.47-1.39,1.68,1.68,0,0,1,0-1,2.93,2.93,0,0,0,.15-.58c-.08-.62-.16-1.26-.23-1.92a4.07,4.07,0,0,1,1.16-2.88,4.86,4.86,0,0,1,3.95-1.54,4.86,4.86,0,0,1,4,1.54A4.07,4.07,0,0,1,34.86,23c-.07.66-.15,1.3-.23,1.92a2.93,2.93,0,0,0,.15.58,1.68,1.68,0,0,1,0,1,4.66,4.66,0,0,1-.47,1.39,2.7,2.7,0,0,0-.35.93,5.42,5.42,0,0,1-.81,2.35,2.2,2.2,0,0,0-.52,1.37c0,1.16.11,1.82.35,2a25.47,25.47,0,0,0,2.84,1.11,1.6,1.6,0,0,0,.29.11q4.48,1.7,4.71,2.85Z"/></svg>