<svg id="Layer_1" data-name="Layer 1" xmlns="http://www.w3.org/2000/svg" viewBox="0 0 15.18 13.96"><defs><style>.cls-1{fill:#00bf46;}</style></defs><title>icon-tick</title><path class="cls-1" d="M13.53,0a1.23,1.23,0,0,1,1,.25,1.51,1.51,0,0,1,.58,1,1.43,1.43,0,0,1-.25,1.11l-7.54,11a1.56,1.56,0,0,1-.93.59,1.27,1.27,0,0,1-1-.26,19.62,19.62,0,0,1-1.53-1.55c-.83-.88-1.6-1.74-2.33-2.56L.4,8.33A1.49,1.49,0,0,1,0,7.27a1.44,1.44,0,0,1,.44-1,1.31,1.31,0,0,1,1-.42,1.27,1.27,0,0,1,1,.49l3.61,3.9L12.6.61A1.45,1.45,0,0,1,13.53,0Z"/></svg>