<svg id="Layer_1" data-name="Layer 1" xmlns="http://www.w3.org/2000/svg" viewBox="0 0 264 169.09"><defs><style>.cls-1{fill:#d3ebfa;}.cls-1,.cls-10,.cls-11,.cls-14,.cls-15,.cls-16,.cls-17,.cls-18,.cls-19,.cls-2,.cls-20,.cls-21,.cls-22,.cls-23,.cls-24,.cls-25,.cls-26,.cls-27,.cls-28,.cls-29,.cls-3,.cls-30,.cls-39,.cls-4,.cls-40,.cls-41,.cls-42,.cls-5,.cls-6,.cls-7,.cls-9{fill-rule:evenodd;}.cls-2{fill:#99c8ec;}.cls-3{fill:#89bbe6;}.cls-4{fill:#b6daf4;}.cls-5{fill:#170839;}.cls-6{fill:#e84a5b;}.cls-31,.cls-7{fill:#f9b532;}.cls-10,.cls-8{fill:#fff;}.cls-9{fill:#fcc749;}.cls-11,.cls-12{fill:#efeef8;}.cls-13,.cls-14{fill:#80bbe7;}.cls-15{fill:#e98daf;}.cls-16{fill:#f3c6d4;}.cls-17{fill:#0e0226;}.cls-18{fill:#1a0f44;}.cls-19{fill:#1b7fc2;}.cls-20{fill:#428fcd;}.cls-21{fill:#221758;}.cls-22{fill:#22134f;}.cls-23{fill:#201049;}.cls-24{fill:#22185a;}.cls-25{fill:#ed7792;}.cls-26{fill:#0065aa;}.cls-27{fill:#674f9b;}.cls-28{fill:#3388c9;}.cls-29{fill:#f2bbc9;}.cls-30{fill:#3889c9;}.cls-32,.cls-39{fill:#f59f3a;}.cls-33,.cls-40{fill:#fff2d1;}.cls-34{fill:#f18d3d;}.cls-35{fill:#ee7e40;}.cls-36{fill:#f2bcc2;}.cls-37{fill:#f2b2a5;}.cls-38{fill:#f39a4c;}.cls-41{fill:#d8364b;}.cls-42{fill:#28256c;}</style></defs><title>img-mdl</title><path class="cls-1" d="M71.82,3.87h43.61a5.77,5.77,0,0,1,5.76,5.76V50.26a.64.64,0,0,1-1.1.45l-9.81-9.81H71.82a5.77,5.77,0,0,1-5.76-5.76V9.63A5.77,5.77,0,0,1,71.82,3.87Z"/><path class="cls-1" d="M31.54,156.94s-21.41-25.53,3.57-47.64c0,0-22.43-25-8.15-53.35S68.76,30,90.68,35.76s50.46,2.89,72.38-19.7,47.41-17.79,57.1-7.21,12.23,32.2,1.53,53.83-4.59,35.57,4.58,46.14,10.2,40-11.72,48.12ZM38,166s-22.88-13.77-17.33-37.54c0,0,.17-.61-.37-.71s-11.9,18.19,4,34.93Z"/><path class="cls-2" d="M159.19,101.48c26.39-2.49,21.47,24.78,4.45,42-3.12,3.15-8.09,7.46-14.21,12.56h-53C117,127.25,141.07,103.19,159.19,101.48Z"/><path class="cls-3" d="M116.43,156a472.32,472.32,0,0,1,49.66-43.07,1.07,1.07,0,0,1,1.26,1.72A468.6,468.6,0,0,0,119.44,156Z"/><path class="cls-2" d="M141,39.35c10.83-3.41,11.22,8.45,5.63,17.18-5.29,8.28-28.54,34-33.8,47.18L110,102.19C111.49,82.48,127.1,43.71,141,39.35Z"/><path class="cls-3" d="M111,102.75c6.64-28.84,33.81-59.12,33.9-59.22a.45.45,0,0,1,.64,0,.46.46,0,0,1,0,.65c-.09.1-27.29,30.42-33.75,59.05Z"/><path class="cls-4" d="M147,57.25c10.73-1.37,9.09,9.82,2.37,17.07-5.56,6-26.24,22.15-36.16,33.81l-4.54-1.72C115.3,87.64,134.32,58.86,147,57.25Z"/><path class="cls-2" d="M110.32,107C122.78,83,149.86,61.91,150,61.83a.43.43,0,0,1,.61.08.44.44,0,0,1-.08.61c-.09.07-27,21-39.36,44.82Z"/><path class="cls-5" d="M9.27,156H252.89a2.92,2.92,0,0,1,2.91,2.91h0a2.92,2.92,0,0,1-2.91,2.91h-9.8a1.61,1.61,0,0,0-1.61,1.61h0a1.61,1.61,0,0,0,1.61,1.61h3.59a2,2,0,0,1,2,2h0a2,2,0,0,1-2,2H15.81a2,2,0,0,1-2-2h0a2,2,0,0,1,2-2h2.82a1.62,1.62,0,0,0,1.62-1.61h0a1.62,1.62,0,0,0-1.62-1.61H9.27a2.91,2.91,0,0,1-2.9-2.91h0A2.92,2.92,0,0,1,9.27,156Zm1.52,13.08a1.94,1.94,0,0,0,1.93-1.94V167a2,2,0,0,0-1.93-1.94h0A2,2,0,0,0,8.85,167v.16a1.94,1.94,0,0,0,1.94,1.94Z"/><path class="cls-1" d="M229.24,90.63Zm2.38-9.07a4.59,4.59,0,1,1-1.34,3.24,4.56,4.56,0,0,1,1.34-3.24Zm1-4.54a8.49,8.49,0,0,0-1.8.77A7.92,7.92,0,0,0,229.24,79a.3.3,0,0,1-.34,0l-2.13-1.23h0a.48.48,0,0,0-.39,0,.51.51,0,0,0-.32.24h0l-1.49,2.6a.47.47,0,0,0-.05.4.48.48,0,0,0,.24.32h0l2.12,1.22a.28.28,0,0,1,.13.31h0a7.25,7.25,0,0,0-.18,1,8.07,8.07,0,0,0,.18,2.94.28.28,0,0,1-.15.32l-2.11,1.21h0a.5.5,0,0,0-.24.33.48.48,0,0,0,.05.4l1.5,2.6h0a.53.53,0,0,0,.32.25.56.56,0,0,0,.4-.05h0l2.11-1.22a.3.3,0,0,1,.34,0,7.92,7.92,0,0,0,1.57,1.19,8.06,8.06,0,0,0,1.81.76.29.29,0,0,1,.2.27v2.46a.55.55,0,0,0,.53.53h3a.49.49,0,0,0,.37-.16.51.51,0,0,0,.16-.37V92.85a.28.28,0,0,1,.22-.27,8.1,8.1,0,0,0,1.79-.76,8.28,8.28,0,0,0,1.58-1.19.29.29,0,0,1,.35,0l2.11,1.22a.56.56,0,0,0,.4.05.53.53,0,0,0,.32-.25h0l1.5-2.6h0a.53.53,0,0,0,.05-.39.55.55,0,0,0-.25-.33l-2.12-1.22a.3.3,0,0,1-.14-.31h0a7.89,7.89,0,0,0,.18-1,8.12,8.12,0,0,0,0-2,7.25,7.25,0,0,0-.18-1,.3.3,0,0,1,.15-.32L245,81.31a.53.53,0,0,0,.25-.32.56.56,0,0,0-.05-.4v0L243.66,78h0a.51.51,0,0,0-.32-.24.47.47,0,0,0-.4.05h0L240.81,79a.29.29,0,0,1-.34,0,8.27,8.27,0,0,0-1.57-1.18,7.65,7.65,0,0,0-1.81-.77.29.29,0,0,1-.2-.27V74.29a.53.53,0,0,0-.53-.52h-3a.54.54,0,0,0-.37.15.52.52,0,0,0-.16.37v2.46A.28.28,0,0,1,232.61,77Z"/><path class="cls-1" d="M244.13,45.29a6.8,6.8,0,0,1,9.63,0,6.7,6.7,0,0,1,1.48,2.22,6.63,6.63,0,0,1,.52,2.6,6.84,6.84,0,0,1-4.21,6.3,6.91,6.91,0,0,1-5.21,0,6.82,6.82,0,0,1-4.21-6.3,6.63,6.63,0,0,1,.52-2.6,6.7,6.7,0,0,1,1.48-2.22Zm2.45-.89a6.11,6.11,0,0,0-2,1.34,6.17,6.17,0,0,0,0,8.74,6.4,6.4,0,0,0,2,1.35,6.31,6.31,0,0,0,4.73,0,6.4,6.4,0,0,0,2-1.35,6.18,6.18,0,0,0-2-10.08,6.19,6.19,0,0,0-4.73,0Zm-.75-5a9.45,9.45,0,0,0-1.26.45,10.78,10.78,0,0,0-2.34,1.35,12.81,12.81,0,0,0-1,.89.72.72,0,0,1-.85.1c-1-.57-2.05-1.15-3-1.75a.42.42,0,0,0-.15,0,.32.32,0,0,0-.17,0,.35.35,0,0,0-.15.07.45.45,0,0,0-.11.13c-.73,1.1-1.46,2.53-2.14,3.7a.3.3,0,0,0-.05.16.33.33,0,0,0,0,.17.41.41,0,0,0,.07.15.45.45,0,0,0,.13.11c.9.6,2.06,1.19,3,1.75a.68.68,0,0,1,.3.33.44.44,0,0,1,.05.15l.06,0-.07.28c0,.22-.1.45-.14.67s-.07.43-.1.67-.05.45-.06.68,0,.44,0,.68,0,.47,0,.69,0,.45.06.67.06.46.1.68.09.44.14.66a.75.75,0,0,1,0,.47.7.7,0,0,1-.33.33l-2.66,1.54h0l-.32.18a.69.69,0,0,0-.13.11.41.41,0,0,0-.07.15.33.33,0,0,0,0,.17.3.3,0,0,0,.05.16l2,3.43h0l.16.28a.45.45,0,0,0,.11.13.35.35,0,0,0,.15.07.33.33,0,0,0,.17,0,.3.3,0,0,0,.16-.05c1-.6,2-1.17,3-1.74a.69.69,0,0,1,.44-.09.71.71,0,0,1,.41.19h0a11.08,11.08,0,0,0,1,.89,12.29,12.29,0,0,0,1.13.75,12.62,12.62,0,0,0,1.22.61,12.88,12.88,0,0,0,1.28.45.68.68,0,0,1,.37.25.77.77,0,0,1,.14.44V65a.41.41,0,0,0,0,.16.42.42,0,0,0,.09.14.45.45,0,0,0,.14.1.47.47,0,0,0,.17,0h4.27a.47.47,0,0,0,.17,0,.45.45,0,0,0,.14-.1.42.42,0,0,0,.09-.14.41.41,0,0,0,0-.16V61.54a.73.73,0,0,1,.16-.45.78.78,0,0,1,.39-.25,9.45,9.45,0,0,0,1.26-.45,10.47,10.47,0,0,0,1.21-.6,12.29,12.29,0,0,0,1.13-.75,11.08,11.08,0,0,0,1-.89.65.65,0,0,1,.43-.19.69.69,0,0,1,.46.11l3,1.72a.3.3,0,0,0,.16.05.33.33,0,0,0,.17,0,.41.41,0,0,0,.15-.07.45.45,0,0,0,.11-.13c.71-1.23,1.43-2.46,2.14-3.7a.3.3,0,0,0,.05-.16.33.33,0,0,0,0-.17.41.41,0,0,0-.07-.15.45.45,0,0,0-.13-.11l-3-1.74a.66.66,0,0,1-.3-.34.56.56,0,0,1,0-.12h-.08l.08-.32c0-.22.1-.44.14-.66s.07-.44.1-.68.05-.45.06-.67,0-.45,0-.69,0-.47,0-.68,0-.45-.06-.68-.06-.46-.1-.68-.09-.44-.14-.66a.75.75,0,0,1,0-.47.73.73,0,0,1,.32-.33l3-1.73a.33.33,0,0,0,.13-.11.35.35,0,0,0,.07-.15.33.33,0,0,0,0-.17.3.3,0,0,0-.05-.16c-.73-1.08-1.46-2.53-2.14-3.7a.45.45,0,0,0-.11-.13.41.41,0,0,0-.15-.07.33.33,0,0,0-.17,0,.3.3,0,0,0-.16,0l-3,1.74a.66.66,0,0,1-.45.09.72.72,0,0,1-.41-.2,12.27,12.27,0,0,0-1-.88,11.21,11.21,0,0,0-1.14-.75,9.73,9.73,0,0,0-1.21-.6,10.79,10.79,0,0,0-1.28-.46.68.68,0,0,1-.37-.25.75.75,0,0,1-.15-.43V35.2a.41.41,0,0,0,0-.16.42.42,0,0,0-.09-.14.71.71,0,0,0-.14-.1.47.47,0,0,0-.17,0h-4.27a.47.47,0,0,0-.17,0,.71.71,0,0,0-.14.1.45.45,0,0,0-.12.3v3.49a.7.7,0,0,1-.16.44.78.78,0,0,1-.39.25Zm-1.51-.13a11.6,11.6,0,0,0-1.27.64,10.8,10.8,0,0,0-1.2.79,12.15,12.15,0,0,0-1.1.94l0,0h-.06l-3-1.76a1.05,1.05,0,0,0-.38-.12,1.05,1.05,0,0,0-1,.52c-.73,1.2-1.43,2.49-2.14,3.7a1.17,1.17,0,0,0-.13.4.94.94,0,0,0,0,.41,1.16,1.16,0,0,0,.18.37,1.18,1.18,0,0,0,.31.28c1,.6,2,1.17,3,1.74l0,0v0l-.07.28h0c0,.14,0,.28-.08.42s-.08.48-.11.71,0,.47-.06.72,0,.49,0,.72,0,.48,0,.72,0,.49.06.72.07.47.11.71.09.47.15.7v0s0,0,0,0c-1.11.6-2.24,1.29-3.33,1.93l0,0,0,0a1.27,1.27,0,0,0-.18.37.94.94,0,0,0,0,.41,1.17,1.17,0,0,0,.13.4l2.3,4,0,0,.07.06a1.33,1.33,0,0,0,.38.18.94.94,0,0,0,.41,0,1.07,1.07,0,0,0,.38-.13c1-.53,2-1.17,3-1.75h.06s0,0,0,0a13.87,13.87,0,0,0,1.1.93,10.8,10.8,0,0,0,1.2.79,11.82,11.82,0,0,0,1.28.65,12.67,12.67,0,0,0,1.35.47l0,0a.07.07,0,0,1,0,.06V65a.9.9,0,0,0,.09.4.93.93,0,0,0,.23.35,1,1,0,0,0,.34.23,1.15,1.15,0,0,0,.41.08h4.27a1.15,1.15,0,0,0,.41-.08,1,1,0,0,0,.34-.23.93.93,0,0,0,.23-.35.9.9,0,0,0,.09-.4V61.54a.11.11,0,0,1,0-.06l.05,0h0a9.8,9.8,0,0,0,1.35-.48,12.58,12.58,0,0,0,1.27-.64,10.8,10.8,0,0,0,1.2-.79,12.15,12.15,0,0,0,1.1-.94l.05,0a.06.06,0,0,1,.05,0l3,1.74a1.06,1.06,0,0,0,.39.13.94.94,0,0,0,.41,0,1.27,1.27,0,0,0,.37-.18,1,1,0,0,0,.27-.3c.8-1.28,1.54-2.67,2.3-4l0,0s0-.06,0-.1a1.12,1.12,0,0,0,0-.41,1.27,1.27,0,0,0-.18-.37,1.18,1.18,0,0,0-.31-.28l-3-1.74,0,0v0l.08-.32h0c0-.13.06-.25.08-.38s.08-.48.11-.71,0-.47.06-.72,0-.48,0-.72,0-.47,0-.72,0-.49-.06-.72-.07-.47-.11-.71-.09-.47-.15-.7c0,0,0,0,0,0l0,0,3-1.74a1,1,0,0,0,.31-.28,1.27,1.27,0,0,0,.18-.37,1.12,1.12,0,0,0,0-.41,1.2,1.2,0,0,0-.13-.39c-.72-1.33-1.54-2.67-2.3-4l0,0-.08-.06a1.27,1.27,0,0,0-.37-.18.94.94,0,0,0-.41,0,1.06,1.06,0,0,0-.39.13L260,40h0l-2.79,1.62h-.06l0,0h0a12.15,12.15,0,0,0-1.09-.93,11.27,11.27,0,0,0-1.2-.79,10.19,10.19,0,0,0-1.28-.64,10.83,10.83,0,0,0-1.35-.48l-.05,0s0,0,0-.05V35.2a.9.9,0,0,0-.09-.4,1,1,0,0,0-.23-.35,1.13,1.13,0,0,0-.34-.23,1.15,1.15,0,0,0-.41-.08h-4.27a1.15,1.15,0,0,0-.41.08,1.13,1.13,0,0,0-.34.23,1,1,0,0,0-.32.75v3.49a.09.09,0,0,1,0,.05l0,0h0A13.4,13.4,0,0,0,244.32,39.25Z"/><path class="cls-6" d="M74.73,1.65h43.61a5.77,5.77,0,0,1,5.76,5.76V48a.64.64,0,0,1-1.1.45l-9.81-9.81H74.73A5.79,5.79,0,0,1,69,32.92V7.41A5.78,5.78,0,0,1,74.73,1.65Z"/><path class="cls-7" d="M79.33,31.4H102a1.87,1.87,0,0,0,1.87-1.87V12.35A1.87,1.87,0,0,0,102,10.48H101V9.6a.51.51,0,0,0-.52-.51H93.68a.52.52,0,0,0-.52.51v.88H79.33a1.88,1.88,0,0,0-1.88,1.87V29.53A1.88,1.88,0,0,0,79.33,31.4Z"/><rect class="cls-8" x="79.29" y="13.76" width="17.35" height="17.64" rx="1.53"/><path class="cls-9" d="M81.58,31.4h20.89a3.3,3.3,0,0,0,2.71-1.87l6.58-14.79c.46-1,0-1.87-1-1.87h-1.09l.41-.93c.17-.37,0-.68-.38-.68H102a1.2,1.2,0,0,0-1,.68l-.42.93H89.84a3.29,3.29,0,0,0-2.71,1.87L80.54,29.53C80.08,30.56,80.55,31.4,81.58,31.4Z"/><path class="cls-5" d="M92.18,17.27a7.28,7.28,0,1,1-2.13,5.14,7.25,7.25,0,0,1,2.13-5.14Zm5.14-1.09A6.23,6.23,0,1,0,101.73,18,6.26,6.26,0,0,0,97.32,16.18Z"/><path class="cls-5" d="M101.73,27.56a.52.52,0,1,1,.74-.74l1.72,1.72a.52.52,0,0,1-.74.74Z"/><path class="cls-5" d="M103.52,30.09A1,1,0,1,1,105,28.61l5.55,5.56a1,1,0,0,1-1.47,1.47Z"/><path class="cls-10" d="M100.92,18.82a.34.34,0,0,1,0-.49.36.36,0,0,1,.49,0,5.77,5.77,0,0,1,1.69,4.08h0a5.78,5.78,0,0,1-.23,1.6.34.34,0,1,1-.66-.19,5.16,5.16,0,0,0,.2-1.41h0a5.1,5.1,0,0,0-.39-1.95,5,5,0,0,0-1.1-1.64Zm.68,6.34a.35.35,0,0,1,.48-.1.34.34,0,0,1,.1.47,5.74,5.74,0,0,1-.36.5c-.13.17-.27.32-.41.47a.36.36,0,0,1-.49,0,.34.34,0,0,1,0-.49c.13-.14.26-.27.37-.41a4.37,4.37,0,0,0,.31-.44ZM93.73,26a.35.35,0,1,1-.49.49,5.82,5.82,0,0,1-1.69-4.09,5.33,5.33,0,0,1,.1-1.05,5.16,5.16,0,0,1,.29-1,.33.33,0,0,1,.44-.2.36.36,0,0,1,.2.44,4.64,4.64,0,0,0-.26.9,5.74,5.74,0,0,0-.08.93,5.21,5.21,0,0,0,.38,1.95A5.11,5.11,0,0,0,93.73,26Zm-.54-6.57a.34.34,0,0,1-.48.08.35.35,0,0,1-.07-.48c.09-.13.19-.25.28-.37h0l.3-.33a.35.35,0,0,1,.49.49l-.27.28v0C93.36,19.23,93.27,19.33,93.19,19.44Z"/><path class="cls-11" d="M101.16,6.37h16.45a.38.38,0,0,1,.38.38h0a.38.38,0,0,1-.38.38H101.16a.38.38,0,0,1-.38-.38h0A.38.38,0,0,1,101.16,6.37Z"/><path class="cls-11" d="M101.16,8.76h16.45a.38.38,0,0,1,.38.38h0a.38.38,0,0,1-.38.38H101.16a.38.38,0,0,1-.38-.38h0A.38.38,0,0,1,101.16,8.76Z"/><path class="cls-11" d="M114.5,11.4h3.11a.38.38,0,0,1,.38.38h0a.38.38,0,0,1-.38.38H114.5a.38.38,0,0,1-.38-.38h0A.38.38,0,0,1,114.5,11.4Z"/><path class="cls-11" d="M114.5,14.1h3.11a.38.38,0,0,1,.38.38h0a.39.39,0,0,1-.38.39H114.5a.39.39,0,0,1-.38-.39h0A.38.38,0,0,1,114.5,14.1Z"/><path class="cls-11" d="M114.5,16.81h3.11a.38.38,0,0,1,.38.38h0a.38.38,0,0,1-.38.38H114.5a.38.38,0,0,1-.38-.38h0A.38.38,0,0,1,114.5,16.81Z"/><path class="cls-11" d="M114.5,19.52h3.11a.38.38,0,0,1,.38.38h0a.38.38,0,0,1-.38.38H114.5a.38.38,0,0,1-.38-.38h0A.38.38,0,0,1,114.5,19.52Z"/><path class="cls-11" d="M114.5,22.22h3.11a.38.38,0,0,1,.38.38h0a.38.38,0,0,1-.38.38H114.5a.38.38,0,0,1-.38-.38h0A.38.38,0,0,1,114.5,22.22Z"/><path class="cls-11" d="M114.5,24.93h3.11a.38.38,0,0,1,.38.38h0a.38.38,0,0,1-.38.38H114.5a.38.38,0,0,1-.38-.38h0A.38.38,0,0,1,114.5,24.93Z"/><rect class="cls-12" x="109.35" y="27.63" width="8.64" height="0.76" rx="0.38"/><path class="cls-11" d="M110.51,24.93h2.33a.38.38,0,0,1,.38.38h0a.38.38,0,0,1-.38.38h-2.33a.38.38,0,0,1-.38-.38h0A.38.38,0,0,1,110.51,24.93Z"/><path class="cls-11" d="M111.55,22.22h1.17a.39.39,0,0,1,.39.38h0a.39.39,0,0,1-.39.38h-1.17a.38.38,0,0,1-.38-.38h0A.38.38,0,0,1,111.55,22.22Z"/><path class="cls-11" d="M112.37,19.52h.86a.38.38,0,0,1,.38.38h0a.38.38,0,0,1-.38.38h-.86a.38.38,0,0,1-.38-.38h0A.38.38,0,0,1,112.37,19.52Z"/><rect class="cls-13" x="79.47" y="48.8" width="3.07" height="3.07" rx="0.61"/><rect class="cls-8" x="85.76" y="48.8" width="3.07" height="3.07" rx="0.61"/><rect class="cls-13" x="92.04" y="48.8" width="3.07" height="3.07" rx="0.61"/><rect class="cls-13" x="98.33" y="48.8" width="3.07" height="3.07" rx="0.61"/><path class="cls-14" d="M31.41,21.74c-.23,0-.42-.27-.42-.6s.19-.6.42-.6h19.7c.23,0,.42.27.42.6s-.19.6-.42.6Zm-2.67-1.2c.24,0,.42.27.42.6s-.18.6-.42.6H27.1c-.23,0-.42-.27-.42-.6s.19-.6.42-.6Z"/><path class="cls-14" d="M55,44.34a.26.26,0,0,1,.26-.25.25.25,0,0,1,.25.25v1.15a.25.25,0,0,1-.25.25.26.26,0,0,1-.26-.25V44.34Zm-1.73.93a.25.25,0,0,1,.36-.36l.81.81a.25.25,0,0,1-.36.36l-.81-.81Zm-.57,1.88a.25.25,0,0,1-.25-.25.26.26,0,0,1,.25-.26H53.8a.26.26,0,0,1,.25.26.25.25,0,0,1-.25.25Zm.93,1.73a.25.25,0,0,1-.36-.36l.81-.8a.25.25,0,0,1,.36.36l-.81.8Zm1.88.57a.26.26,0,0,1-.25.26.26.26,0,0,1-.26-.26V48.31a.26.26,0,0,1,.26-.25.25.25,0,0,1,.25.25v1.14Zm1.73-.93a.25.25,0,0,1-.36.36l-.81-.8a.27.27,0,0,1,0-.36.25.25,0,0,1,.36,0l.81.8Zm.57-1.88a.26.26,0,0,1,.25.26.25.25,0,0,1-.25.25H56.62a.26.26,0,0,1-.26-.25.26.26,0,0,1,.26-.26Zm-.93-1.73a.25.25,0,0,1,.36.36l-.81.81a.25.25,0,0,1-.36,0,.27.27,0,0,1,0-.36Z"/><path class="cls-14" d="M204.52,13.85a.26.26,0,0,1,.26-.26.26.26,0,0,1,.25.26V15a.26.26,0,0,1-.25.26.26.26,0,0,1-.26-.26V13.85Zm-1.73.93a.25.25,0,0,1,.36-.36l.81.8a.25.25,0,1,1-.36.36l-.81-.8Zm-.56,1.88a.26.26,0,0,1-.26-.26.26.26,0,0,1,.26-.25h1.14a.25.25,0,0,1,.25.25.26.26,0,0,1-.25.26Zm.92,1.73a.25.25,0,0,1-.36-.36l.81-.81a.25.25,0,1,1,.36.36l-.81.81ZM205,19a.25.25,0,0,1-.25.25.26.26,0,0,1-.26-.25V17.81a.26.26,0,0,1,.26-.25.25.25,0,0,1,.25.25V19Zm1.73-.93a.25.25,0,0,1,0,.36.24.24,0,0,1-.35,0l-.81-.81a.25.25,0,0,1,.36-.36l.8.81Zm.57-1.88a.26.26,0,0,1,.26.25.26.26,0,0,1-.26.26h-1.14a.26.26,0,0,1-.25-.26.25.25,0,0,1,.25-.25Zm-.92-1.73a.24.24,0,0,1,.35,0,.25.25,0,0,1,0,.36l-.8.8a.25.25,0,0,1-.36-.36Z"/><path class="cls-14" d="M224,129.88a.25.25,0,1,1,.5,0V131a.25.25,0,0,1-.5,0v-1.14Zm-1.74.93a.27.27,0,0,1,0-.36.25.25,0,0,1,.36,0l.81.8a.25.25,0,0,1-.36.36l-.81-.8Zm-.56,1.87a.25.25,0,1,1,0-.5h1.14a.25.25,0,0,1,0,.5Zm.92,1.74a.25.25,0,0,1-.36,0,.27.27,0,0,1,0-.36l.81-.81a.25.25,0,0,1,.36.36l-.81.81Zm1.88.56a.25.25,0,1,1-.5,0v-1.14a.25.25,0,0,1,.5,0V135Zm1.73-.92a.25.25,0,0,1,0,.36.24.24,0,0,1-.35,0l-.81-.81a.25.25,0,1,1,.36-.36l.8.81Zm.57-1.88a.25.25,0,1,1,0,.5h-1.14a.25.25,0,0,1,0-.5Zm-.92-1.73a.24.24,0,0,1,.35,0,.25.25,0,0,1,0,.36l-.8.8a.25.25,0,1,1-.36-.36Z"/><path class="cls-14" d="M5.77,89.54A.26.26,0,0,1,6,89.28a.26.26,0,0,1,.26.26v1.14a.26.26,0,0,1-.26.25.25.25,0,0,1-.25-.25V89.54ZM4,90.47a.25.25,0,1,1,.36-.36l.8.8a.25.25,0,1,1-.36.36l-.8-.8Zm-.57,1.88a.26.26,0,0,1-.26-.26.26.26,0,0,1,.26-.25H4.61a.26.26,0,0,1,.26.25.26.26,0,0,1-.26.26Zm.93,1.73A.25.25,0,1,1,4,93.72l.8-.81a.25.25,0,0,1,.36.36l-.8.81Zm1.88.57A.26.26,0,0,1,6,94.9a.25.25,0,0,1-.25-.25V93.5A.25.25,0,0,1,6,93.25a.26.26,0,0,1,.26.25v1.15ZM8,93.72a.25.25,0,1,1-.36.36l-.81-.81a.25.25,0,0,1,.36-.36l.81.81Zm.57-1.88a.25.25,0,0,1,.25.25.26.26,0,0,1-.25.26H7.43a.26.26,0,0,1-.25-.26.25.25,0,0,1,.25-.25Zm-.93-1.73a.25.25,0,1,1,.36.36l-.81.8a.25.25,0,1,1-.36-.36Z"/><path class="cls-14" d="M256.38,113.48a.26.26,0,0,1,.25-.26.26.26,0,0,1,.26.26v1.14a.26.26,0,0,1-.26.25.25.25,0,0,1-.25-.25v-1.14Zm-1.73.92a.24.24,0,0,1,0-.35.25.25,0,0,1,.36,0l.8.8a.25.25,0,1,1-.36.36l-.8-.81Zm-.57,1.88a.25.25,0,1,1,0-.5h1.14a.25.25,0,0,1,0,.5ZM255,118a.27.27,0,0,1-.36,0,.25.25,0,0,1,0-.36l.8-.81a.25.25,0,0,1,.36.36l-.8.81Zm1.88.56a.26.26,0,0,1-.26.26.26.26,0,0,1-.25-.26v-1.14a.25.25,0,0,1,.25-.25.26.26,0,0,1,.26.25v1.14Zm1.73-.92a.25.25,0,0,1,0,.36.27.27,0,0,1-.36,0l-.81-.81a.25.25,0,0,1,.36-.36l.81.81Zm.57-1.88a.25.25,0,0,1,0,.5H258a.25.25,0,0,1,0-.5Zm-.93-1.73a.25.25,0,0,1,.36,0,.24.24,0,0,1,0,.35l-.81.81a.25.25,0,1,1-.36-.36Z"/><rect class="cls-13" x="238.98" y="14.38" width="3.07" height="3.07" rx="0.61"/><rect class="cls-8" x="245.27" y="14.38" width="3.07" height="3.07" rx="0.61"/><rect class="cls-13" x="251.56" y="14.38" width="3.07" height="3.07" rx="0.61"/><rect class="cls-13" x="257.84" y="14.38" width="3.07" height="3.07" rx="0.61"/><path class="cls-1" d="M4.76,42Zm2.38-9.06A4.57,4.57,0,1,1,5.8,36.18a4.56,4.56,0,0,1,1.34-3.24Zm1-4.54a7.9,7.9,0,0,0-1.79.76,7.7,7.7,0,0,0-1.58,1.19.29.29,0,0,1-.34,0L2.3,29.16h0a.51.51,0,0,0-.38,0,.51.51,0,0,0-.32.24v0L.07,32a.54.54,0,0,0,.19.72h0l2.11,1.22a.28.28,0,0,1,.13.31h0a7.56,7.56,0,0,0-.18,1,8.12,8.12,0,0,0,0,2,7.56,7.56,0,0,0,.18,1,.28.28,0,0,1-.15.32L.26,39.67h0a.54.54,0,0,0-.19.72L1.58,43h0a.54.54,0,0,0,.72.19h0L4.43,42a.29.29,0,0,1,.33,0,7.92,7.92,0,0,0,1.57,1.19A8.8,8.8,0,0,0,8.14,44a.28.28,0,0,1,.21.27v2.45a.53.53,0,0,0,.52.53h3a.53.53,0,0,0,.52-.53V44.23a.29.29,0,0,1,.22-.28,7.9,7.9,0,0,0,1.79-.76A7.7,7.7,0,0,0,16,42a.29.29,0,0,1,.35,0l2.11,1.22a.54.54,0,0,0,.72-.19v0l1.5-2.59h0a.54.54,0,0,0-.19-.72l-2.13-1.23a.28.28,0,0,1-.13-.31h0a7.56,7.56,0,0,0,.18-1c0-.32,0-.65,0-1s0-.67,0-1a7.56,7.56,0,0,0-.18-1,.28.28,0,0,1,.15-.32l2.11-1.22a.54.54,0,0,0,.19-.72h0l-1.5-2.6h0a.54.54,0,0,0-.72-.19h0l-2.13,1.23a.29.29,0,0,1-.34-.05,8.27,8.27,0,0,0-1.57-1.18,8.49,8.49,0,0,0-1.8-.77.27.27,0,0,1-.21-.27V25.67a.53.53,0,0,0-.52-.53h-3a.53.53,0,0,0-.52.53v2.45A.29.29,0,0,1,8.13,28.4Z"/><path class="cls-15" d="M149.59,74.47c-2.68,2.44-3.09,2.73-3.09,2.73s-1.77,3.35-1.09,3.35a1.87,1.87,0,0,0,1.22-.62s.66.85,1.26.5a9.43,9.43,0,0,1,.91-.49s.68.68,1.24.24,3.25-3.34,3.25-3.34l3.56-2.33-1.42-1.28Z"/><path class="cls-16" d="M192.92,146.08c0,.37-.49,2.26-.48,2.31.08.55.21,1.67.21,1.67a4.77,4.77,0,0,1-2.09,1.43c-1,.18-5.59.39-5.65.14a12.49,12.49,0,0,1,1.14-2.23,5.3,5.3,0,0,0,1.48-3.62C187.7,143.26,192.92,146.08,192.92,146.08Z"/><path class="cls-17" d="M187,149.91l.57-.2a3.87,3.87,0,0,0,2.87.12,3.39,3.39,0,0,0,2-1.44.31.31,0,0,1,.25-.18h.38a.81.81,0,0,1,.74.47,9.08,9.08,0,0,1,0,4.3c-.49,1.38-1.18,1.2-1.18,1.2a9.1,9.1,0,0,0-4.58-.16c-1.84.65-3.53,1.33-3.53,1.33S184.65,151.68,187,149.91Z"/><path class="cls-18" d="M174.53,155l-.21-.59v-.73c0-.27.12-1.08.91-1.08h3c.7,0,4.49-1.93,7.4-4.3a.39.39,0,0,1,.51-.06c.3.17,1.23.91,1.33,1a.64.64,0,0,1,0,.51l-2.75,5.44S176.85,156.2,174.53,155Z"/><path class="cls-17" d="M174.32,154.38a.51.51,0,0,0-.17.31v.58a1.14,1.14,0,0,0,1.13.74h8.38a7.26,7.26,0,0,0,3-.65,17.56,17.56,0,0,1,2.16-.79s.2-.07.2.27v.67c0,.17-.1.62.58.62h4.08c.31,0,.67-.18.67-.81v-1.64c0-.39-.24-.7-.5-.7h-3.14a8.78,8.78,0,0,0-4,1.09,10.7,10.7,0,0,1-4.83,1h-4.7A5.37,5.37,0,0,1,174.32,154.38Z"/><path class="cls-16" d="M210.71,146.08c-.05.37-.49,2.26-.48,2.31l.21,1.67a4.83,4.83,0,0,1-2.1,1.43c-1,.18-5.59.39-5.65.14a12.49,12.49,0,0,1,1.15-2.23,5.26,5.26,0,0,0,1.47-3.62C205.49,143.26,210.71,146.08,210.71,146.08Z"/><path class="cls-17" d="M204.76,149.91l.56-.2a3.87,3.87,0,0,0,2.87.12,3.44,3.44,0,0,0,2-1.44.29.29,0,0,1,.25-.18h.37a.8.8,0,0,1,.74.47,9.08,9.08,0,0,1,0,4.3c-.49,1.38-1.18,1.2-1.18,1.2a9.06,9.06,0,0,0-4.57-.16c-1.85.65-3.54,1.33-3.54,1.33S202.43,151.68,204.76,149.91Z"/><path class="cls-18" d="M192.31,155l-.2-.59v-.73c0-.27.11-1.08.9-1.08h3c.7,0,4.49-1.93,7.4-4.3a.4.4,0,0,1,.51-.06,15.33,15.33,0,0,1,1.33,1,.57.57,0,0,1,0,.51c0,.11-2.75,5.44-2.75,5.44S194.64,156.2,192.31,155Z"/><path class="cls-17" d="M192.11,154.38a.51.51,0,0,0-.18.31v.58a1.14,1.14,0,0,0,1.13.74h8.39a7.21,7.21,0,0,0,3-.65,18.2,18.2,0,0,1,2.16-.79s.2-.07.2.27v.67c0,.17-.1.62.59.62h4.07c.32,0,.67-.18.67-.81v-1.64c0-.39-.24-.7-.5-.7H208.5a8.72,8.72,0,0,0-4,1.09,10.74,10.74,0,0,1-4.84,1H195A5.35,5.35,0,0,1,192.11,154.38Z"/><path class="cls-19" d="M161,32.13s-1.89,3.17-.71,10.38,9.37,35.28,3.81,49.93a1.33,1.33,0,0,0,.62,1.56c1,.55,14.45,2.89,24.32-1.31S181.53,34.27,161,32.13Z"/><path class="cls-5" d="M187.19,147.39a8.57,8.57,0,0,0,5.95.53,2,2,0,0,0,1.17-1.34c.21-1,7.2-59.81,8-70.26S196.82,59.51,187,52.8s-1.59-1-2.35-1.47a88.72,88.72,0,0,1-5.27,14.74l0,4.42a3.78,3.78,0,0,0,.22.88c3,11.84,3.34,21.29,3.78,33.2,0,.34-.17-8.94,0,1s2.48,38.67,2.62,39.8S186.7,147.28,187.19,147.39Z"/><path class="cls-5" d="M162.75,43.37,165.57,48s12,20.56,13.63,23.49S188,74,188,74l-15.16-44a67.16,67.16,0,0,0-7.34-.79c-2.06,0-3.38,3.19-3.38,3.19Z"/><path class="cls-20" d="M161,32.13s-1.89,3.17-.71,10.38c.92,5.58,6,23.61,5.72,38.27h0c2.6-26.69-2.2-43.58-3.88-48.47A10.63,10.63,0,0,0,161,32.13Z"/><path class="cls-21" d="M204.81,147.43s2.05,1.15,5.79.34a2,2,0,0,0,1.17-1.34c.21-1,3-20.72,3.85-31.16s7.95-49.62-10.79-62.47-22.77,9.32-22.77,9.32,17.48,7.36,17.9,27,3.58,55.22,3.72,56.35S204.32,147.32,204.81,147.43Z"/><path class="cls-22" d="M206.35,147.91a11,11,0,0,0,4.25-.14,2,2,0,0,0,1.17-1.34c.21-1,3-20.72,3.85-31.16.64-7.92,4.88-32.38-1.29-49.34-.09.06-9.73,6.82-15.28,16.3A31,31,0,0,1,200,89.1c.07,3.31.22,7.07.42,11.05,2.38-2.55,5.54-6,7.15-7.92,2.78-3.33,5.9-2.15,7-.56s-3.12,41.78-3.68,46.91C210.47,142.2,207.86,146,206.35,147.91Z"/><path class="cls-16" d="M158,21a7.74,7.74,0,0,0,.45.93l-1.7,1.79a13.55,13.55,0,0,0,1.06,1.17,3.65,3.65,0,0,0-1.86,1.35s-1.83,5.63-1.3,6.17l-.06.07c-3.28,3.88-5.3,2.6-5.71,2.25s-2.43-2.2-2.65-2.24-1,.87-1.53.43a55.85,55.85,0,0,1-5.86-8,12.38,12.38,0,0,1-1.21-9.44C144.39,10,150,20.35,150.7,18.61s2.63-1.9,3.71,0C154.56,18.91,157.94,20.68,158,21Z"/><path class="cls-15" d="M158,21a7.74,7.74,0,0,0,.45.93l-1.7,1.79a13.55,13.55,0,0,0,1.06,1.17,4.56,4.56,0,0,0-.55.24,1.32,1.32,0,0,0-.18-.67c-.46-.53-1.38-1.68-1.38-1.68a1,1,0,0,1-1.53-.82c-.24-1.42-1.34-2.81-2.48-2.58s-.49,1.71-.49,1.71L153.89,25l-.45,4.65s-4.23.76-3.37-1-1.35-3.2-3.92-6.11-4-2.6-4.65-2.15l-3.7,2.48a12.45,12.45,0,0,1-.55-5.37,34.14,34.14,0,0,1,5.8-3.43c4.15.92,7.17,5.85,7.65,4.61.69-1.74,2.63-1.9,3.71,0C154.56,18.91,157.94,20.68,158,21Z"/><path class="cls-16" d="M158.89,21l2.32.13c1,0,1.83,5.91,1.83,5.91l-1.71,2.6-.4.61-1.29,2-.13-.61s-1.35-1-2.21.13-3-2-3-2S153.92,22.77,158.89,21Z"/><path class="cls-15" d="M158.89,21l2.32.13c1,0,1.83,5.91,1.83,5.91l-1.71,2.6-.4.61-1.29,2-.13-.61s-1.35-1-2.21.13a.62.62,0,0,1-.82.19l.58-2.44s.47-4.5,0-5l-1-1.26A5.93,5.93,0,0,1,158.89,21Z"/><path class="cls-5" d="M148.35,21s-3.1,1.51-5.55-3.13c0,0-3.17,3.36-5.24,4.2l-.13,0,.13,0a4.66,4.66,0,0,1-1.85-.4,6.57,6.57,0,0,1-3.77-3.32c-1.81-3.6.34-5.44,2.29-5.2,0,0,2.91-6.35,4.54-8.22s5.45-1.08,5.45-1.08-.56-1.63.1-2,4.24.32,5.62,4.46c0,0,2.78-.45,4.24,1S158.87,20.9,158.89,21c.07.78-.24,1.57-1,1.6a4,4,0,0,1-3.41-1.6s-1-3.66-2.84-3.11c0,0-1.53,0-.81,2.6a8.18,8.18,0,0,0,1.47,1.86,14.71,14.71,0,0,1,4.81,6.08c1.62,3.79-1.81,6.18-2.75,7.29s-2.52,2-3.65,1l-4.09-3.46c-.39-.33-.48-.69-.38-.79s1.65-1.76,2.9-3,2.24-2,2.24-3.37a4.86,4.86,0,0,0-1.3-3.87A6,6,0,0,0,148.35,21Z"/><path class="cls-23" d="M142.8,17.82s-3.17,3.36-5.24,4.2l-.13,0,.13,0a4.66,4.66,0,0,1-1.85-.4,6.57,6.57,0,0,1-3.77-3.32c-1.81-3.6.34-5.44,2.29-5.2,0,0,2.91-6.35,4.54-8.22s5.45-1.08,5.45-1.08-.56-1.63.1-2,4.24.32,5.62,4.46C149.94,6.25,150,10.39,142.8,17.82Z"/><path class="cls-24" d="M131.55,17.4c-1-3,.9-4.52,2.68-4.3,0,0,11.24,2.65,12.77-10.7.17.11.34.22.51.35C147.66,8.27,146,18.49,131.55,17.4Z"/><path class="cls-5" d="M144.09,27.1h0a.72.72,0,0,1,1,.09l.61.71a.72.72,0,0,1-.09,1h0a.71.71,0,0,1-1-.08l-.61-.72A.72.72,0,0,1,144.09,27.1Z"/><path class="cls-25" d="M146.28,29a1.06,1.06,0,1,1-.13,1.5A1.06,1.06,0,0,1,146.28,29Z"/><path class="cls-5" d="M144.23,25.69a.22.22,0,0,0,.17-.26.22.22,0,0,0-.26-.16,2.67,2.67,0,0,0-1.9,1.56.21.21,0,0,0,.13.27.21.21,0,0,0,.28-.13A2.27,2.27,0,0,1,144.23,25.69Z"/><path class="cls-10" d="M165.7,72.52s-9.16,3.42-10.12,3.88-2-3.35-2.1-4,.57-1.35,1.81-2.06l8.14-4.71Z"/><path class="cls-5" d="M167.13,72.25c-3.35,1.25-9.15,3.45-10,3.85-1.17.56-2.45-4.1-2.56-4.86s.69-1.65,2.21-2.52L163.23,65a7.09,7.09,0,0,0,2.57-5c.33-3.43,1.51-19.15,1.51-19.15L176.49,45l1.63,2.4s-3.44,14.89-4.79,18.35S170.1,71.13,167.13,72.25Z"/><path class="cls-26" d="M214,51.51s6.52,11.29,7.75,28.19a.79.79,0,0,1-.55.85c-.65.27-6.11,0-12.53,7.89s-16.68,15-22.56,14c0,0-.63,0-.71-1s-1.31-47.26-20.21-64a5.37,5.37,0,0,1-1.76-4.06C163.44,30.85,193,20.37,214,51.51Z"/><path class="cls-19" d="M208.62,63.06l-1.36,4.58s-2.92.15-10.48-15c0,0-3-5.84-11.69-7.62L189,39.49s16.51,2.92,16.42,4.33S208.62,63.06,208.62,63.06Z"/><path class="cls-5" d="M170,51l5.45-3.66a1.46,1.46,0,0,1,1.81.23l9.52,10.52a1,1,0,0,1-.19,1.57l-5.44,3.66a1.44,1.44,0,0,1-1.81-.23l-9.52-10.52A1,1,0,0,1,170,51Z"/><path class="cls-21" d="M169.23,51.53l5.45-3.66a1.44,1.44,0,0,1,1.8.23L186,58.63a1,1,0,0,1-.18,1.56l-5.45,3.66a1.43,1.43,0,0,1-1.8-.23L169.05,53.1A1,1,0,0,1,169.23,51.53Z"/><path class="cls-27" d="M170,52.82l.88-.59a.23.23,0,0,1,.29,0l2.36,2.6a.16.16,0,0,1,0,.25l-.88.59a.24.24,0,0,1-.29,0L170,53.07A.17.17,0,0,1,170,52.82Z"/><path class="cls-1" d="M170.74,52.82a.58.58,0,0,1,.75.11.43.43,0,0,1-.09.66.58.58,0,0,1-.75-.1A.45.45,0,0,1,170.74,52.82Z"/><path class="cls-1" d="M171.64,53.83a.58.58,0,0,1,.75.11.43.43,0,0,1-.09.66.58.58,0,0,1-.75-.1A.45.45,0,0,1,171.64,53.83Z"/><path class="cls-10" d="M171.79,54a.32.32,0,0,1,.42.06.24.24,0,0,1-.05.37.34.34,0,0,1-.43,0A.25.25,0,0,1,171.79,54Z"/><path class="cls-10" d="M170.87,53a.35.35,0,0,1,.45.07.26.26,0,0,1,0,.4.35.35,0,0,1-.45-.07A.26.26,0,0,1,170.87,53Z"/><path class="cls-1" d="M172.5,54.79a.35.35,0,0,1,.45.07.26.26,0,0,1,0,.4.35.35,0,0,1-.45-.07A.27.27,0,0,1,172.5,54.79Z"/><path class="cls-5" d="M163.93,17.08c-.11.06-2.37.65-2.75.82s-.5,1-.59,2.35-1.2,11.55-1.25,12.13a.92.92,0,0,0,.66,1.1l6.29,2.26Z"/><path class="cls-10" d="M195.29,45.76s-8.76,5.8-9.76,6.34,1.64,3.87,2.13,4.34,1.53.36,2.93-.27,9.24-4.11,9.24-4.11Z"/><path class="cls-21" d="M199.2,42.37S187.75,50,186.43,50.66s2.15,5.05,2.78,5.67,2,.47,3.84-.36l12.09-5.36Z"/><path class="cls-20" d="M174.91,43.42a76.32,76.32,0,0,0,11.81,1.69c6.41.4,19.71,1.28,20.54,22.53,0,0,.1.12.44,0s9.61-8.34,10.91-12.29S212.39,36.87,208.26,35s-11.81-3.4-20.2-11.83-19.94-7.42-19.94-7.42L165.6,25S166.75,41,174.91,43.42Z"/><path class="cls-28" d="M204.92,55.92a32.6,32.6,0,0,1,2.34,11.72s.1.12.44,0,9.61-8.34,10.91-12.29c.52-1.58-.37-4.86-1.9-8.34,0,2.55-.34,5.37-1.61,6.77-1.79,2-7,2.2-10.18,2.14Zm4-20.52a3.84,3.84,0,0,0-.68-.41c-4.13-1.87-11.81-3.4-20.2-11.83l-.53-.51c.06.14,5.42,12.27-8,15,0,0-.86.18-.62.91S203.55,32,208.94,35.4Z"/><path class="cls-19" d="M168.6,15.71l-.48,0-1.54,5.68L168.81,37l1.95.81a10.15,10.15,0,0,1-.15-2.33c.18-.16,4.27-2.17,4.79-2.45a.75.75,0,0,0,.42-.78C175.42,31.37,169.83,18.54,168.6,15.71Z"/><path class="cls-1" d="M164,15.28a1.26,1.26,0,0,0-.69.82c-.16.61.07,13.33.12,14.75s5.77,8.65,7.19,10.33a7.27,7.27,0,0,0,4.28,2.24.07.07,0,0,0,.07-.07c0-.06-2.22-1-2.9-2a34.93,34.93,0,0,1-2-6.09s3.93-1.89,4.6-2.28.79-.69.53-1.13-6.63-15.53-7.09-16.09S166,15,164,15.28Z"/><path class="cls-23" d="M145.58,4a.2.2,0,1,1-.23.33,7.61,7.61,0,0,0-5.61-.91.19.19,0,1,1-.07-.38A8.11,8.11,0,0,1,145.58,4Z"/><path class="cls-23" d="M137.34,21.27a.19.19,0,0,1,.26.09.19.19,0,0,1-.08.26s-3.69,1.89-6-2.41a.19.19,0,0,1,.08-.26.2.2,0,0,1,.27.08C134,23,137.33,21.28,137.34,21.27Z"/><path class="cls-29" d="M185.32,52.38c-.58-.2-1.79-.86-2.11-1s-3.36-.85-3.36-.85l1.62,1.79a52.48,52.48,0,0,0-6,3c-1.08.85-.41,1.26.53,1.26h.95s-.18,1.61,1,1.65a5.8,5.8,0,0,0,1.3,0s.45,1.35,1.43,1.22a13.45,13.45,0,0,0,4.67-1.66,7.3,7.3,0,0,0,2.12-1.52C186.84,55.52,185.11,53.27,185.32,52.38Z"/><path class="cls-15" d="M185.32,52.38a4.6,4.6,0,0,1-.61-.26c-.1,1.78,1.28,3.19-.92,4.37-2.41,1.29-4,.95-6.74-1.67l-.37-.25a9.44,9.44,0,0,0-1.22.74c-1.08.85-.41,1.26.53,1.26h.95s-.18,1.61,1,1.65a5.8,5.8,0,0,0,1.3,0s.45,1.35,1.43,1.22a13.45,13.45,0,0,0,4.67-1.66,7.3,7.3,0,0,0,2.12-1.52C186.84,55.52,185.11,53.27,185.32,52.38Z"/><path class="cls-30" d="M113.61,58.64H51.27c-3.1,0-5.64,2.13-5.64,4.72V156h73.62V63.36C119.25,60.77,116.71,58.64,113.61,58.64Z"/><path class="cls-14" d="M123.84,58.64H71.62c-2.6,0-4.73,1.78-4.73,4V156h61.68V62.6C128.57,60.42,126.44,58.64,123.84,58.64Z"/><path class="cls-10" d="M123.84,61.08H71.62a1,1,0,0,0-1,.87V156h54.3V62A1,1,0,0,0,123.84,61.08Z"/><path class="cls-21" d="M90.61,61.08h14.24a1.13,1.13,0,0,1,1.21,1h0a1.13,1.13,0,0,1-1.21,1H90.61a1.12,1.12,0,0,1-1.2-1h0A1.12,1.12,0,0,1,90.61,61.08Z"/><path class="cls-21" d="M71.62,61.08h52.22a1,1,0,0,1,1,.87v.14H70.58V62A1,1,0,0,1,71.62,61.08Z"/><path class="cls-21" d="M90.61,133h14.24a1.13,1.13,0,0,1,1.21,1h0a1.13,1.13,0,0,1-1.21,1H90.61a1.12,1.12,0,0,1-1.2-1h0A1.12,1.12,0,0,1,90.61,133Z"/><path class="cls-21" d="M71.62,133h52.22a1,1,0,0,1,1,.87V134H70.58v-.14A1,1,0,0,1,71.62,133Z"/><rect class="cls-31" x="70.58" y="76.27" width="12.38" height="19.45"/><rect class="cls-32" x="70.58" y="79.15" width="12.38" height="16.57"/><rect class="cls-8" x="70.58" y="80.9" width="12.38" height="14.82"/><rect class="cls-33" x="70.58" y="80.9" width="12.38" height="14.82"/><path class="cls-9" d="M83,79.65H73.8A3.67,3.67,0,0,0,70.58,82V95.72H83Z"/><rect class="cls-34" x="74.5" y="76.27" width="8.47" height="17.19"/><rect class="cls-35" x="74.5" y="79.15" width="8.47" height="14.31"/><rect class="cls-36" x="74.5" y="80.9" width="8.47" height="12.56"/><rect class="cls-37" x="74.5" y="80.9" width="8.47" height="12.56"/><rect class="cls-38" x="74.5" y="79.65" width="8.47" height="13.81"/><path class="cls-7" d="M99.27,76.27H80.35a2.66,2.66,0,0,0-2.65,2.64V95.72H99.27Z"/><path class="cls-39" d="M99.27,79.15H81.82a2.65,2.65,0,0,0-2.64,2.64V95.72H99.27Z"/><path class="cls-10" d="M80.3,95.72V83.06a2.16,2.16,0,0,1,2.16-2.16H99.27V95.72Z"/><path class="cls-40" d="M81.62,95.72,85,82.3a3.41,3.41,0,0,1,.75-1.4H99.27V95.72Z"/><path class="cls-9" d="M99.27,79.65H90.11A3.62,3.62,0,0,0,86.8,82.3L83.43,95.72H99.27Z"/><rect class="cls-34" x="90.8" y="76.27" width="8.47" height="17.19"/><rect class="cls-35" x="90.8" y="79.15" width="8.47" height="14.31"/><rect class="cls-36" x="90.8" y="80.9" width="8.47" height="12.56"/><rect class="cls-37" x="90.8" y="80.9" width="8.47" height="12.56"/><rect class="cls-38" x="90.8" y="79.65" width="8.47" height="13.81"/><path class="cls-7" d="M115.58,76.27H96.66A2.65,2.65,0,0,0,94,78.91V95.72h21.57Z"/><path class="cls-39" d="M115.58,79.15H98.13a2.65,2.65,0,0,0-2.65,2.64V95.72h20.1Z"/><path class="cls-10" d="M96.61,95.72V83.06a2.16,2.16,0,0,1,2.16-2.16h16.81V95.72Z"/><path class="cls-40" d="M97.93,95.72l3.36-13.42a3.43,3.43,0,0,1,.76-1.4h13.53V95.72Z"/><path class="cls-9" d="M115.58,79.65h-9.16a3.64,3.64,0,0,0-3.32,2.65L99.74,95.72h15.84Z"/><rect class="cls-34" x="107.11" y="76.27" width="8.47" height="17.19"/><rect class="cls-35" x="107.11" y="79.15" width="8.47" height="14.31"/><rect class="cls-36" x="107.11" y="80.9" width="8.47" height="12.56"/><rect class="cls-37" x="107.11" y="80.9" width="8.47" height="12.56"/><rect class="cls-38" x="107.11" y="79.65" width="8.47" height="13.81"/><path class="cls-7" d="M112.48,105.83h32a2.65,2.65,0,0,0,2.64-2.65V78.91a2.65,2.65,0,0,0-2.64-2.64h-1.3V75a.73.73,0,0,0-.73-.73h-9.66A.73.73,0,0,0,132,75v1.23H112.48a2.66,2.66,0,0,0-2.65,2.64v24.27A2.66,2.66,0,0,0,112.48,105.83Z"/><path class="cls-39" d="M112.48,105.83h32a2.65,2.65,0,0,0,2.64-2.65V79.42a2.68,2.68,0,0,0-1.17-.27h-1.3V77.91a.73.73,0,0,0-.73-.72h-9.66a.73.73,0,0,0-.73.72v1.24H114a2.65,2.65,0,0,0-2.64,2.64v23.76A2.56,2.56,0,0,0,112.48,105.83Z"/><rect class="cls-8" x="112.43" y="80.9" width="24.51" height="24.93" rx="2.16"/><path class="cls-40" d="M134.79,105.83h-20.2a2.16,2.16,0,0,1-2.16-2.16V101l4.69-18.66a3.3,3.3,0,0,1,.75-1.4h16.92A2.17,2.17,0,0,1,137,83.06v20.61A2.17,2.17,0,0,1,134.79,105.83Z"/><path class="cls-9" d="M115.67,105.83h29.51a3.62,3.62,0,0,0,3.31-2.65l5.25-20.88a2,2,0,0,0-2-2.65H150.2l.33-1.31a.73.73,0,0,0-.72-1H139a1.32,1.32,0,0,0-1.2,1l-.33,1.31H122.24a3.62,3.62,0,0,0-3.31,2.65l-5.24,20.88A2,2,0,0,0,115.67,105.83Z"/><path class="cls-7" d="M147.09,83.45l-4.18,16.69a3.64,3.64,0,0,1-3.32,2.65H113.78l-.09.39a2,2,0,0,0,2,2.65h29.51a3.62,3.62,0,0,0,3.31-2.65l5.25-20.88a2,2,0,0,0-2-2.65H150.2l.33-1.31a.73.73,0,0,0-.72-1h-2a2.23,2.23,0,0,1,.32,1.89Z"/><rect class="cls-8" x="106.98" y="86.06" width="54.29" height="22.96"/><path class="cls-21" d="M90.61,109h14.24a1.13,1.13,0,0,1,1.21,1h0a1.13,1.13,0,0,1-1.21,1H90.61a1.12,1.12,0,0,1-1.2-1h0A1.12,1.12,0,0,1,90.61,109Z"/><path class="cls-21" d="M71.62,109h52.22a1,1,0,0,1,1,.86V110H70.58v-.15A1,1,0,0,1,71.62,109Z"/><path class="cls-21" d="M108,85.05h52.22a1,1,0,0,1,1,.87v.14H142.45a1.12,1.12,0,0,1-1.21,1H127a1.12,1.12,0,0,1-1.21-1H107v-.14A1,1,0,0,1,108,85.05Z"/><path class="cls-1" d="M107,109v-23H70.58v23.83a1,1,0,0,1,1-.86H107Z"/><path class="cls-6" d="M47,83.81c-6.21-6.89-10.84,1.86-10.19,10.65.61,8.32,7.21,36.9,6,48.92h2.53C51.47,128,54.93,92.63,47,83.81Z"/><path class="cls-41" d="M44.36,143.38c6-24.3-1.6-57.88-1.62-58a.37.37,0,0,0-.44-.28.4.4,0,0,0-.26.47c0,.11,7.65,33.73,1.59,57.81Z"/><path class="cls-14" d="M31.64,99c-6.55-3.78-8.2,4.47-5.65,11.29,2.12,5.65,11.47,22.36,15,33.1h3.33C44.6,128.54,39.37,103.45,31.64,99Z"/><path class="cls-20" d="M43.1,143.38c-2.16-20.07-14.43-41.89-14.47-42a.29.29,0,0,0-.41-.11.34.34,0,0,0-.1.45c0,.08,12.23,21.75,14.39,41.63Z"/><path class="cls-9" d="M59.32,108.52c6.35-3,7.36,4.79,4.54,11-1.91,4.16-8.79,14.83-13.42,23.91H45.15C47,129.65,52.76,111.64,59.32,108.52Z"/><path class="cls-7" d="M47,143.38C51.55,126.74,61.93,111.07,62,111a.28.28,0,0,1,.39-.07.32.32,0,0,1,.07.43c0,.06-10.32,15.57-14.81,32Z"/><path class="cls-42" d="M37,137.89h18.6a1.05,1.05,0,0,1,1,1.1v5a1.06,1.06,0,0,1-1,1.1H37a1.06,1.06,0,0,1-1-1.1v-5A1.05,1.05,0,0,1,37,137.89Z"/><polygon class="cls-42" points="40.21 141.95 52.43 141.95 55.62 145.09 53.02 156.01 46.32 156.01 39.63 156.01 37.02 145.09 40.21 141.95"/><polygon class="cls-21" points="55.62 145.09 55.09 147.33 37.56 147.33 37.02 145.09 55.62 145.09"/><path class="cls-29" d="M153.48,72.24c-.34.25-.52.41-.52.41s-2.91-.27-3.8.75-2.82,3.49-3.66,3.88.09,1.11,1.85.49a17,17,0,0,0,3.76-2.12,4.87,4.87,0,0,0,3.27-.43,14,14,0,0,1-.9-2.79A.61.61,0,0,1,153.48,72.24Z"/></svg>